<svg xmlns="http://www.w3.org/2000/svg" width="256" height="256" fill="none" viewBox="0 0 256 256" id="figma">
  <rect width="224" height="224" x="16" y="16" fill="#EEE" rx="70"></rect>
  <path fill="#1ABCFE" fill-rule="evenodd" d="M128 127.999C128 115.726 137.949 105.776 150.222 105.776C162.495 105.776 172.444 115.726 172.444 127.999C172.444 140.272 162.495 150.221 150.222 150.221C137.949 150.221 128 140.272 128 127.999Z" clip-rule="evenodd"></path>
  <path fill="#0ACF83" fill-rule="evenodd" d="M83.5547 172.446C83.5547 160.173 93.5039 150.224 105.777 150.224H127.999V172.446C127.999 184.719 118.05 194.668 105.777 194.668C93.5039 194.668 83.5547 184.719 83.5547 172.446Z" clip-rule="evenodd"></path>
  <path fill="#FF7262" fill-rule="evenodd" d="M128 61.333V105.777H150.222C162.495 105.777 172.444 95.8282 172.444 83.5552C172.444 71.2822 162.495 61.333 150.222 61.333H128Z" clip-rule="evenodd"></path>
  <path fill="#F24E1E" fill-rule="evenodd" d="M83.5547 83.5552C83.5547 95.8282 93.5039 105.777 105.777 105.777H127.999V61.333H105.777C93.5039 61.333 83.5547 71.2822 83.5547 83.5552Z" clip-rule="evenodd"></path>
  <path fill="#A259FF" fill-rule="evenodd" d="M83.5547 127.999C83.5547 140.272 93.5039 150.221 105.777 150.221H127.999V105.776H105.777C93.5039 105.776 83.5547 115.726 83.5547 127.999Z" clip-rule="evenodd"></path>
</svg>
