<svg xmlns="http://www.w3.org/2000/svg" width="1257" height="1257" fill="none" viewBox="0 0 1257 1257" id="instagram">
  <path fill="url(#paint0_linear_2001_51)" d="M966.48 0C1126.43 0 1256.1 129.669 1256.1 289.623V966.48C1256.1 1126.43 1126.43 1256.1 966.48 1256.1H289.623C129.669 1256.1 0 1126.43 0 966.48V289.623C0 129.669 129.669 0 289.623 0H966.48ZM830.624 164.083H425.481C280.413 164.083 161.706 282.924 161.706 427.857V828.273C161.706 973.341 280.548 1092.05 425.481 1092.05H830.624C975.692 1092.05 1094.4 973.206 1094.4 828.273V427.83C1094.4 282.762 975.692 164.056 830.624 164.056V164.083ZM830.624 247.812C878.309 248.005 923.986 267.032 957.704 300.75C991.422 334.468 1010.45 380.145 1010.64 427.83V828.273C1010.45 875.958 991.422 921.635 957.704 955.354C923.986 989.072 878.309 1008.1 830.624 1008.29H425.481C377.797 1008.1 332.12 989.072 298.401 955.354C264.683 921.635 245.655 875.958 245.463 828.273V427.83C245.655 380.145 264.683 334.468 298.401 300.75C332.12 267.032 377.797 248.005 425.481 247.812H830.624ZM628.052 388.019C580.578 388.019 534.17 402.096 494.696 428.472C455.223 454.847 424.458 492.335 406.29 536.195C388.123 580.056 383.369 628.318 392.631 674.88C401.893 721.442 424.753 764.212 458.322 797.781C491.892 831.351 534.662 854.212 581.224 863.474C627.786 872.735 676.049 867.982 719.909 849.814C763.769 831.647 801.258 800.88 827.633 761.407C854.008 721.934 868.085 675.526 868.085 628.052C868.085 564.391 842.796 503.337 797.781 458.322C752.766 413.307 691.713 388.019 628.052 388.019ZM628.052 471.748C658.966 471.748 689.186 480.915 714.89 498.09C740.594 515.265 760.628 539.676 772.458 568.237C784.288 596.798 787.384 628.226 781.353 658.546C775.321 688.866 760.435 716.716 738.575 738.575C716.716 760.435 688.865 775.322 658.545 781.353C628.225 787.383 596.798 784.288 568.237 772.458C539.676 760.628 515.265 740.594 498.09 714.89C480.915 689.186 471.748 658.966 471.748 628.052C471.798 586.613 488.282 546.886 517.584 517.584C546.886 488.282 586.613 471.798 628.052 471.748ZM873.325 320.576C841.895 320.576 816.416 346.055 816.416 377.485C816.416 408.915 841.895 434.393 873.325 434.394C904.755 434.394 930.234 408.915 930.234 377.485C930.234 346.055 904.755 320.576 873.325 320.576Z"></path>
  <defs>
    <linearGradient id="paint0_linear_2001_51" x1="183.953" x2="1072.15" y1="1072.15" y2="183.953" gradientUnits="userSpaceOnUse">
      <stop stop-color="#FFD521"></stop>
      <stop offset=".055" stop-color="#FFD020"></stop>
      <stop offset=".124" stop-color="#FEC01E"></stop>
      <stop offset=".2" stop-color="#FCA71B"></stop>
      <stop offset=".282" stop-color="#FA8316"></stop>
      <stop offset=".368" stop-color="#F85510"></stop>
      <stop offset=".456" stop-color="#F51E09"></stop>
      <stop offset=".5" stop-color="#F30005"></stop>
      <stop offset=".503" stop-color="#F20007"></stop>
      <stop offset=".597" stop-color="#E1003B"></stop>
      <stop offset=".688" stop-color="#D30067"></stop>
      <stop offset=".776" stop-color="#C70088"></stop>
      <stop offset=".859" stop-color="#BF00A0"></stop>
      <stop offset=".936" stop-color="#BB00AF"></stop>
      <stop offset="1" stop-color="#B900B4"></stop>
    </linearGradient>
  </defs>
</svg>
